# xmcd
#
# Track frame offsets:
#	150
#	40825
#	46643
#	73736
#	96582
#	100637
#	169078
#	173086
#	210779
#	245389
#	248860
# 
# Disc length: 3855 seconds
# 
# Revision: 9
# Processed by: cddbd v1.5.2PL0 Copyright (c) Steve Scherf et al.
# Submitted via: Advanced CD Ripper Pro
#
DISCID=870f0d0b
DTITLE=Various Artist - In Session
DYEAR=1999
DGENRE=Blues
TTITLE0=Aaron Walker - Call It Stormy Monday
TTITLE1=Old Times
TTITLE2=Stevie Ray Vaughan - Pride And Joy
TTITLE3=Riley B. King - Ask Me No Questions
TTITLE4=Pep Talk
TTITLE5=Albert King - Blues At Sunrise
TTITLE6=Turn It Over
TTITLE7=Albert King - Overall Junction
TTITLE8=Albert King - Match Box Blues
TTITLE9=Who Is Stevie?
TTITLE10=Hudson Whittaker - Don't Lie To Me
EXTD=
EXTT0=
EXTT1=
EXTT2=
EXTT3=
EXTT4=
EXTT5=
EXTT6=
EXTT7=
EXTT8=
EXTT9=
EXTT10=
PLAYORDER=
